<svg width="24" height="24" viewBox="0 0 24 24" fill="none" xmlns="http://www.w3.org/2000/svg">
    <path d="M3 16.25C3.41421 16.25 3.75 16.5858 3.75 17V19C3.75 19.3315 3.88179 19.6494 4.11621 19.8838C4.35063 20.1182 4.66848 20.25 5 20.25H7C7.41421 20.25 7.75 20.5858 7.75 21C7.75 21.4142 7.41421 21.75 7 21.75H5C4.27065 21.75 3.57139 21.4601 3.05566 20.9443C2.53994 20.4286 2.25 19.7293 2.25 19V17C2.25 16.5858 2.58579 16.25 3 16.25ZM21 16.25C21.4142 16.25 21.75 16.5858 21.75 17V19C21.75 19.7293 21.4601 20.4286 20.9443 20.9443C20.4286 21.4601 19.7293 21.75 19 21.75H17C16.5858 21.75 16.25 21.4142 16.25 21C16.25 20.5858 16.5858 20.25 17 20.25H19C19.3315 20.25 19.6494 20.1182 19.8838 19.8838C20.1182 19.6494 20.25 19.3315 20.25 19V17C20.25 16.5858 20.5858 16.25 21 16.25ZM16 7.25C16.9665 7.25 17.75 8.0335 17.75 9V15C17.75 15.9665 16.9665 16.75 16 16.75H8C7.0335 16.75 6.25 15.9665 6.25 15V9C6.25 8.0335 7.0335 7.25 8 7.25H16ZM8 8.75C7.86193 8.75 7.75 8.86193 7.75 9V15C7.75 15.1381 7.75 15.25 8 15.25H16C16.1381 15.25 16.25 15.1381 16.25 15V9C16.25 8.86193 16.1381 8.75 16 8.75H8ZM7 2.25C7.41421 2.25 7.75 2.58579 7.75 3C7.75 3.41421 7.75 3.75 7 3.75H5C4.66848 3.75 4.35063 3.88179 4.11621 4.11621C3.88179 4.35063 3.75 4.66848 3.75 5V7C3.75 7.41421 3.75 7.75 3 7.75C2.58579 7.75 2.25 7.41421 2.25 7V5C2.25 4.27065 2.53994 3.57139 3.05566 3.05566C3.57139 2.53994 4.27065 2.25 5 2.25H7ZM19 2.25C19.7293 2.25 20.4286 2.53994 20.9443 3.05566C21.4601 3.57139 21.75 4.27065 21.75 5V7C21.75 7.41421 21.4142 7.75 21 7.75C20.5858 7.75 20.25 7.41421 20.25 7V5C20.25 4.66848 20.1182 4.35063 19.8838 4.11621C19.6494 3.88179 19 3.75 19 3.75H17C16.5858 3.75 16.25 3.41421 16.25 3C16.25 2.58579 16.5858 2.25 17 2.25H19Z" fill="#121212"/>
</svg>
